# xmcd
#
# Track frame offsets:
#	225
#	25261
#	45557
#	64716
#	89606
#	113803
#	135940
#	156417
#	174410
#	189446
#	216043
#	233328
#
# Disc length: 3408 seconds
#
# Revision: 0
# Processed by: cddbd v1.5.2PL0 Copyright (c) Steve Scherf et al.
# Submitted via: audiograbber 1.83.01
#
DISCID=960d4d0c
DTITLE=William Bell - A Portrait Is Forever
DYEAR=1999
DGENRE=Soul
TTITLE0=Operator
TTITLE1=Listen With My Mind
TTITLE2=That's My Job "24-7"
TTITLE3=Come In Out Of The Rain
TTITLE4=Take Advantage Of A Good Thang
TTITLE5=After The Paint Comes Off
TTITLE6=Lifestyles Of The Poor and Unknown
TTITLE7=I Can't Leave Your Love Alone
TTITLE8=If You Can't Handle The Finance
TTITLE9=Like A Man
TTITLE10=You Should've Covered Your Tracks
TTITLE11=Just A Man "Working Hard"
EXTD=
EXTT0=
EXTT1=
EXTT2=
EXTT3=
EXTT4=
EXTT5=
EXTT6=
EXTT7=
EXTT8=
EXTT9=
EXTT10=
EXTT11=
PLAYORDER=
